<svg width="142" height="40" viewBox="0 0 142 40" fill="none" xmlns="http://www.w3.org/2000/svg">
<g clip-path="url(#clip0_7300_33319)">
<path d="M19.9653 40C30.9918 40 39.9306 31.0457 39.9306 20C39.9306 8.95431 30.9918 0 19.9653 0C8.93876 0 0 8.95431 0 20C0 31.0457 8.93876 40 19.9653 40Z" fill="#02968A"/>
<path d="M31.6865 20.3061L27.7819 24.0284C27.7176 24.1129 27.645 24.1915 27.5665 24.2676L21.8809 29.7147L19.6447 31.8586C18.8781 32.5938 17.6724 32.603 16.895 31.882L14.7882 29.9339L14.764 29.9121L14.6237 29.7758L13.2852 28.47L10.9505 26.3128C9.94262 25.3818 9.87916 23.8059 10.8077 22.7938C11.297 22.2626 11.9667 21.9949 12.6372 21.9949C13.2393 21.9949 13.8422 22.2107 14.3198 22.6541L17.3225 25.4312L18.2268 26.3245L19.4752 25.1283L24.3534 20.4776L28.2863 16.7277C29.4562 15.6127 31.3617 15.9046 32.1441 17.3199C32.6877 18.3036 32.4998 19.5307 31.6865 20.3061Z" fill="white"/>
<path d="M14.764 29.9122L14.6204 29.7792L14.6237 29.7759L14.764 29.9122Z" fill="white"/>
<path d="M21.5843 10.1473C20.9797 9.30334 19.9384 8.66177 18.888 8.5823C18.6892 8.56892 18.3761 8.56892 18.1824 8.5823C17.1319 8.66595 16.0907 9.3025 15.4861 10.1473C13.7251 12.6007 15.5654 15.5626 17.2513 17.4673C17.5336 17.786 17.9753 18.2854 18.3018 18.5371C18.4521 18.6567 18.6066 18.6651 18.7611 18.5463C19.0391 18.3339 19.4007 17.9315 19.6437 17.6664C21.3955 15.7433 23.3987 12.676 21.5851 10.1473H21.5843ZM18.5348 14.4351C17.3875 14.4351 16.4564 13.5024 16.4564 12.3489C16.4564 11.1954 17.3875 10.267 18.5348 10.267C19.6821 10.267 20.6131 11.1996 20.6131 12.3489C20.6131 13.4982 19.6821 14.4351 18.5348 14.4351Z" fill="white"/>
<path d="M14.7881 29.9339L14.7873 29.9347L14.7639 29.9121L14.7881 29.9339Z" fill="white"/>
<path d="M64.6765 25.2982L62.0933 16.0211L59.4773 25.2982C59.2738 26.0018 59.1103 26.5084 58.9868 26.8179C58.8705 27.1205 58.6634 27.3949 58.3655 27.6412C58.0676 27.8804 57.6716 28 57.1774 28C56.7778 28 56.4471 27.9261 56.1855 27.7784C55.9312 27.6376 55.7241 27.4371 55.5642 27.1768C55.4044 26.9094 55.2736 26.5963 55.1719 26.2375C55.0701 25.8716 54.9793 25.5339 54.8994 25.2243L52.2398 14.8074C52.0799 14.2023 52 13.7414 52 13.4248C52 13.0237 52.1453 12.686 52.436 12.4116C52.7267 12.1372 53.0864 12 53.5151 12C54.1037 12 54.4997 12.1829 54.7032 12.5488C54.9066 12.9147 55.0847 13.4459 55.2373 14.1425L57.33 23.1768L59.6735 14.723C59.8479 14.0756 60.0041 13.5831 60.1422 13.2454C60.2802 12.9077 60.5055 12.6157 60.818 12.3694C61.1304 12.1231 61.5555 12 62.0933 12C62.6382 12 63.0597 12.1302 63.3576 12.3905C63.6628 12.6438 63.8736 12.9217 63.9898 13.2243C64.1061 13.5268 64.2623 14.0264 64.4585 14.723L66.8238 23.1768L68.9166 14.1425C69.0183 13.6711 69.1128 13.3017 69.2 13.0343C69.2944 12.7669 69.4506 12.5277 69.6686 12.3166C69.8939 12.1055 70.2173 12 70.6387 12C71.0602 12 71.4163 12.1372 71.7069 12.4116C72.0048 12.679 72.1538 13.0167 72.1538 13.4248C72.1538 13.7133 72.0739 14.1741 71.914 14.8074L69.2545 25.2243C69.0728 25.9279 68.9202 26.445 68.7967 26.7757C68.6804 27.0994 68.4769 27.3843 68.1863 27.6306C67.9029 27.8769 67.4996 28 66.9764 28C66.4823 28 66.0862 27.8804 65.7883 27.6412C65.4904 27.4019 65.2833 27.1346 65.167 26.8391C65.0507 26.5365 64.8872 26.0229 64.6765 25.2982Z" fill="#02968A"/>
<path d="M74.4428 26.0897V13.8997C74.4428 13.2665 74.5917 12.7916 74.8897 12.4749C75.1876 12.1583 75.5727 12 76.0451 12C76.5319 12 76.9243 12.1583 77.2222 12.4749C77.5274 12.7845 77.68 13.2595 77.68 13.8997V26.0897C77.68 26.73 77.5274 27.2084 77.2222 27.5251C76.9243 27.8417 76.5319 28 76.0451 28C75.58 28 75.1949 27.8417 74.8897 27.5251C74.5917 27.2014 74.4428 26.723 74.4428 26.0897Z" fill="#02968A"/>
<path d="M93.4521 23.0923C93.4521 24.0281 93.2014 24.869 92.7 25.6148C92.2059 26.3606 91.4792 26.9446 90.52 27.3668C89.5609 27.7889 88.4236 28 87.1084 28C85.5315 28 84.2308 27.7115 83.2062 27.1346C82.4796 26.7194 81.8874 26.1671 81.4296 25.4776C80.979 24.781 80.7538 24.1055 80.7538 23.4512C80.7538 23.0712 80.8882 22.7476 81.1571 22.4802C81.4332 22.2058 81.782 22.0686 82.2035 22.0686C82.545 22.0686 82.832 22.1741 83.0645 22.3852C83.3043 22.5963 83.5078 22.9094 83.6749 23.3245C83.8784 23.8171 84.0964 24.2287 84.3289 24.5594C84.5687 24.8901 84.903 25.1645 85.3317 25.3826C85.7604 25.5937 86.3236 25.6992 87.0212 25.6992C87.9804 25.6992 88.7579 25.4846 89.3538 25.0554C89.9569 24.6192 90.2584 24.0774 90.2584 23.4301C90.2584 22.9164 90.0949 22.5013 89.768 22.1847C89.4482 21.861 89.0304 21.6148 88.5145 21.4459C88.0058 21.277 87.3228 21.0976 86.4653 20.9077C85.3172 20.6473 84.3544 20.3448 83.5768 20C82.8066 19.6482 82.1926 19.1733 81.7348 18.5752C81.2842 17.9701 81.059 17.2208 81.059 16.3272C81.059 15.4758 81.2988 14.7194 81.7784 14.058C82.258 13.3967 82.9519 12.8901 83.8602 12.5383C84.7686 12.1794 85.8367 12 87.0648 12C88.0458 12 88.8923 12.1196 89.6045 12.3588C90.3238 12.591 90.9197 12.9041 91.392 13.2982C91.8644 13.6851 92.2095 14.0932 92.4275 14.5224C92.6455 14.9516 92.7545 15.3703 92.7545 15.7784C92.7545 16.1513 92.6164 16.489 92.3403 16.7916C92.0715 17.0871 91.7336 17.2348 91.3266 17.2348C90.956 17.2348 90.6726 17.1469 90.4764 16.971C90.2875 16.788 90.0804 16.4925 89.8552 16.0844C89.5645 15.5004 89.2157 15.0466 88.8088 14.723C88.4018 14.3923 87.7478 14.2269 86.8468 14.2269C86.0111 14.2269 85.3354 14.4063 84.8194 14.7652C84.3108 15.117 84.0564 15.5427 84.0564 16.0422C84.0564 16.3518 84.1436 16.6192 84.318 16.8443C84.4924 17.0695 84.7322 17.263 85.0374 17.4248C85.3426 17.5866 85.6514 17.7133 85.9639 17.8047C86.2764 17.8962 86.7923 18.0299 87.5117 18.2058C88.4127 18.4099 89.2266 18.635 89.9533 18.8813C90.6872 19.1275 91.3085 19.4266 91.8171 19.7784C92.333 20.1302 92.7327 20.577 93.0161 21.1187C93.3068 21.6535 93.4521 22.3113 93.4521 23.0923Z" fill="#02968A"/>
<path d="M99.4579 13.8997V18.3325H106.445V13.8997C106.445 13.2665 106.59 12.7916 106.881 12.4749C107.179 12.1583 107.567 12 108.047 12C108.534 12 108.926 12.1583 109.224 12.4749C109.529 12.7845 109.682 13.2595 109.682 13.8997V26.0897C109.682 26.73 109.529 27.2084 109.224 27.5251C108.919 27.8417 108.527 28 108.047 28C107.56 28 107.171 27.8417 106.881 27.5251C106.59 27.2014 106.445 26.723 106.445 26.0897V20.8865H99.4579V26.0897C99.4579 26.73 99.3053 27.2084 99.0001 27.5251C98.6949 27.8417 98.3025 28 97.8229 28C97.3361 28 96.9473 27.8417 96.6567 27.5251C96.366 27.2014 96.2207 26.723 96.2207 26.0897V13.8997C96.2207 13.2665 96.3624 12.7916 96.6458 12.4749C96.9364 12.1583 97.3288 12 97.8229 12C98.3098 12 98.7022 12.1583 99.0001 12.4749C99.3053 12.7845 99.4579 13.2595 99.4579 13.8997Z" fill="#02968A"/>
<path d="M116.418 13.8997V19.3245L122.773 12.9077C123.078 12.5981 123.336 12.3694 123.547 12.2216C123.765 12.0739 124.052 12 124.408 12C124.873 12 125.247 12.1337 125.53 12.4011C125.821 12.6614 125.966 12.9815 125.966 13.3615C125.966 13.8188 125.723 14.2726 125.236 14.723L121.301 18.3325L125.836 24.6227C126.155 25.0589 126.395 25.4424 126.555 25.7731C126.715 26.0967 126.795 26.4134 126.795 26.723C126.795 27.0677 126.653 27.3668 126.37 27.6201C126.093 27.8734 125.716 28 125.236 28C124.786 28 124.419 27.9085 124.135 27.7256C123.852 27.5356 123.612 27.2858 123.416 26.9763C123.22 26.6667 123.045 26.3852 122.893 26.1319L119.067 20.4327L116.418 22.8918V26.0897C116.418 26.737 116.265 27.219 115.96 27.5356C115.655 27.8452 115.263 28 114.783 28C114.507 28 114.242 27.9296 113.987 27.7889C113.733 27.6482 113.537 27.4582 113.399 27.219C113.297 27.022 113.235 26.7933 113.214 26.533C113.192 26.2726 113.181 25.8962 113.181 25.4037V13.8997C113.181 13.2665 113.323 12.7916 113.606 12.4749C113.897 12.1583 114.289 12 114.783 12C115.27 12 115.662 12.1583 115.96 12.4749C116.265 12.7845 116.418 13.2595 116.418 13.8997Z" fill="#02968A"/>
<path d="M140.212 14.6807H132.92V18.4802H139.635C140.129 18.4802 140.496 18.5893 140.736 18.8074C140.983 19.0185 141.106 19.2999 141.106 19.6517C141.106 20.0035 140.986 20.292 140.747 20.5172C140.507 20.7353 140.136 20.8443 139.635 20.8443H132.92V25.2454H140.463C140.972 25.2454 141.353 25.3615 141.608 25.5937C141.869 25.8188 142 26.1214 142 26.5013C142 26.8672 141.869 27.1662 141.608 27.3984C141.353 27.6236 140.972 27.7361 140.463 27.7361H131.667C130.962 27.7361 130.453 27.5849 130.141 27.2823C129.836 26.9798 129.683 26.4908 129.683 25.8153V14.1847C129.683 13.7344 129.752 13.3685 129.89 13.0871C130.028 12.7986 130.243 12.591 130.533 12.4644C130.831 12.3307 131.209 12.2639 131.667 12.2639H140.212C140.728 12.2639 141.11 12.3764 141.357 12.6016C141.611 12.8197 141.738 13.1082 141.738 13.467C141.738 13.8329 141.611 14.1284 141.357 14.3536C141.11 14.5717 140.728 14.6807 140.212 14.6807Z" fill="#02968A"/>
</g>
<defs>
<clipPath id="clip0_7300_33319">
<rect width="142" height="40" fill="white"/>
</clipPath>
</defs>
</svg>
